<svg id="Layer_1" data-name="Layer 1" xmlns="http://www.w3.org/2000/svg" viewBox="0 0 730.42 595.28"><defs><style>.cls-1,.cls-10,.cls-11,.cls-18,.cls-2,.cls-20,.cls-3,.cls-5,.cls-6,.cls-8,.cls-9{fill:none;}.cls-1,.cls-10,.cls-11,.cls-12,.cls-13,.cls-14,.cls-15,.cls-16,.cls-17,.cls-19,.cls-2,.cls-20,.cls-3,.cls-4,.cls-5,.cls-6,.cls-7,.cls-8,.cls-9{stroke:#1d1d1b;}.cls-1,.cls-10,.cls-11,.cls-12,.cls-13,.cls-15,.cls-16,.cls-17,.cls-19,.cls-2,.cls-20,.cls-3,.cls-4,.cls-5,.cls-6,.cls-7,.cls-8,.cls-9{stroke-linecap:round;}.cls-1,.cls-10,.cls-11,.cls-12,.cls-13,.cls-15,.cls-16,.cls-17,.cls-19,.cls-2,.cls-3,.cls-4,.cls-5,.cls-6,.cls-7,.cls-8,.cls-9{stroke-linejoin:round;}.cls-1{stroke-width:0.39px;}.cls-19,.cls-2{stroke-width:2px;}.cls-3{stroke-width:0.14px;}.cls-16,.cls-4{fill:#e30613;}.cls-5{stroke-width:0.58px;}.cls-6{stroke-width:0.59px;}.cls-15,.cls-7{fill:#1d1d1b;}.cls-7,.cls-8{stroke-width:0.59px;}.cls-12,.cls-16,.cls-17,.cls-20,.cls-9{stroke-width:3px;}.cls-10{stroke-width:0.62px;}.cls-11,.cls-13,.cls-15{stroke-width:0.64px;}.cls-12,.cls-14{fill:#be1622;}.cls-13{fill:#878787;}.cls-14,.cls-20{stroke-miterlimit:10;}.cls-14{stroke-width:4px;}.cls-17{fill:#575756;}.cls-19{fill:#706f6f;}</style></defs><title>Vampire girl svg</title><path class="cls-1" d="M353,203.29l-.4,1-.47,1.27a1.58,1.58,0,0,1-2.7.41l-1.52-1.88a1.53,1.53,0,0,1-.32-.73,1.42,1.42,0,0,1,.08-.77,1.84,1.84,0,0,1,.26-.48,1,1,0,0,1,.2-.2.83.83,0,0,1,.27-.17,1.16,1.16,0,0,1,.5-.18l2.39-.38A1.56,1.56,0,0,1,353,203.29Z"/><path class="cls-1" d="M374.58,203.55l-1.35,2a1.57,1.57,0,0,1-2.71-.16l-1.07-2.18A1.59,1.59,0,0,1,371,201l2.41.16A1.57,1.57,0,0,1,374.58,203.55Z"/><path class="cls-2" d="M345.34,202.14c13-3,21.32-1.5,32.47-.8"/><path class="cls-1" d="M353,203.29l-.4,1-.47,1.27a1.58,1.58,0,0,1-2.7.41l-1.52-1.88a1.53,1.53,0,0,1-.32-.73,1.42,1.42,0,0,1,.08-.77,1.84,1.84,0,0,1,.26-.48,1,1,0,0,1,.2-.2.83.83,0,0,1,.27-.17,1.16,1.16,0,0,1,.5-.18l2.39-.38A1.56,1.56,0,0,1,353,203.29Z"/><path class="cls-1" d="M374.58,203.55l-1.35,2a1.57,1.57,0,0,1-2.71-.16l-1.07-2.18A1.59,1.59,0,0,1,371,201l2.41.16A1.57,1.57,0,0,1,374.58,203.55Z"/><ellipse class="cls-3" cx="606.21" cy="161.53" rx="0.32" ry="0.04"/><path class="cls-1" d="M430,178.82c1-2.06,1.86-4.14,2.69-6.24C431.79,174.68,430.9,176.76,430,178.82Zm-8.81,15.88c1.32-2,2.57-4.06,3.76-6.14C423.71,190.64,422.44,192.7,421.14,194.7ZM360,236a2.18,2.18,0,0,0,.51,0,.16.16,0,0,0,.14,0Z"/><path class="cls-4" d="M353,203.29l-.4,1-.47,1.27a1.58,1.58,0,0,1-2.7.41l-1.52-1.88a1.53,1.53,0,0,1-.32-.73,1.42,1.42,0,0,1,.08-.77,1.84,1.84,0,0,1,.26-.48,1,1,0,0,1,.2-.2.83.83,0,0,1,.27-.17,1.16,1.16,0,0,1,.5-.18l2.39-.38A1.56,1.56,0,0,1,353,203.29Z"/><path class="cls-4" d="M374.58,203.55l-1.35,2a1.57,1.57,0,0,1-2.71-.16l-1.07-2.18A1.59,1.59,0,0,1,371,201l2.41.16A1.57,1.57,0,0,1,374.58,203.55Z"/><path class="cls-1" d="M383.45,233.41l0,0-1,.2C382.8,233.57,383.11,233.49,383.45,233.41Z"/><path class="cls-1" d="M360.66,236a.16.16,0,0,1-.14,0,2.18,2.18,0,0,1-.51,0Z"/><path class="cls-1" d="M424.9,188.56c-1.19,2.08-2.44,4.14-3.77,6.14C422.44,192.7,423.71,190.64,424.9,188.56Z"/><path class="cls-1" d="M432.64,172.58c-.83,2.1-1.72,4.18-2.69,6.24C430.9,176.76,431.79,174.68,432.64,172.58Z"/><path class="cls-5" d="M344.52,458.2A162.1,162.1,0,0,1,341.57,484c-2.3,11-5.69,18-9.46,18s-7.2-7-9.51-18.18a171.12,171.12,0,0,1-3.07-30.18A200.69,200.69,0,0,0,344.52,458.2Z"/><path class="cls-6" d="M403.29,454.46a159.06,159.06,0,0,1-3.52,31c-2.4,10.22-5.78,16.6-9.54,16.6-2,0-3.93-1.83-5.64-5.11l-.51-1c-.16-.36-.33-.73-.49-1.11s-.32-.78-.48-1.2a67.79,67.79,0,0,1-2.87-10.13,157.13,157.13,0,0,1-2.94-25A227,227,0,0,0,403.29,454.46Z"/><path class="cls-7" d="M508.14,409.49c-22.57,16.69-63.48,36.17-104.85,45a226.81,226.81,0,0,1-26,4c-5.28.48-10.53.74-15.66.74a153.53,153.53,0,0,1-17.11-1,200.36,200.36,0,0,1-25-4.54c-39.3-9.58-78.16-29.82-101.2-46.47-21.15-15.25-29-27.51-11.83-25.78a28,28,0,0,0,14.91-2.83c19.73-9.25,37.81-38.62,63.29-62.5a163.7,163.7,0,0,1,12.71-10.81c1-.81,2.08-1.6,3.13-2.36s2-1.4,2.95-2.08,2.2-1.48,3.33-2.17c.67-.46,1.35-.88,2-1.27.83-.52,1.64-1,2.49-1.47s1.55-.89,2.32-1.3,1.58-.88,2.4-1.29c1.09-.56,2.19-1.11,3.3-1.62l.18-.08c.24-.12.5-.24.75-.34.93-.44,1.89-.85,2.84-1.25l.39-.18c.71-.29,1.43-.59,2.16-.87h0a102.44,102.44,0,0,1,66-2.29c.57.17,1.13.37,1.68.55l.28.1c.93.32,1.84.65,2.73,1s2,.77,2.91,1.19c.79.35,1.59.71,2.36,1.09s1.76.83,2.59,1.28l.34.18c.57.3,1.15.6,1.7.91l.18.1c1.07.6,2.1,1.19,3.11,1.82s2,1.27,3,1.92,1.74,1.21,2.57,1.83a10.16,10.16,0,0,1,.91.67c.92.67,1.81,1.35,2.68,2.06,1.58,1.29,3.13,2.59,4.63,4l.06.06c.73.67,1.47,1.34,2.18,2h0c.73.71,1.44,1.42,2.16,2.14s1.44,1.44,2.14,2.17,1.4,1.49,2.09,2.24c22,23.88,37.39,54.28,73.17,64.81a90.86,90.86,0,0,0,11.59,2.58C532.89,383.9,526.72,395.76,508.14,409.49Z"/><path class="cls-8" d="M394.62,272.2c0,2.16-.08,4.28-.24,6.38a162.19,162.19,0,0,0-71.26,2,88.69,88.69,0,0,1,4.55-27.82h0a73.65,73.65,0,0,1,9.11-18.35l-.69-.69-.06-.06c.35.08.73.13,1.11.21.77.16,1.56.32,2.35.44a108.22,108.22,0,0,0,13.59,1.52c1,.07,1.95.11,2.93.13h.45c.2,0,.4,0,.6,0,.55,0,1.11,0,1.68,0h.34c.29,0,.59,0,.89,0h0a2.18,2.18,0,0,0,.51,0,.16.16,0,0,0,.14,0l1.38,0,1.81-.05c1.07,0,2.12-.1,3.17-.15.61,0,1.21-.1,1.82-.16s1.17-.08,1.74-.14,1.33-.14,2-.24a.34.34,0,0,0,.14,0c.77-.06,1.53-.16,2.28-.28l.51-.08h0c.79-.09,1.57-.21,2.36-.37l.36-.06c.69-.1,1.38-.22,2-.36s1.47-.27,2.18-.43l.56-.11.43-.11c.54-.1,1.07-.22,1.61-.36l.33-.08.08,0a82.88,82.88,0,0,1,8.26,26.5A90.27,90.27,0,0,1,394.62,272.2Z"/><path class="cls-7" d="M302.64,287.45c-.26,1.34-.49,2.69-.71,4.06-.14-1.21-.26-2.42-.32-3.63C302,287.73,302.28,287.59,302.64,287.45Z"/><path class="cls-7" d="M416.46,284.6c0,.37,0,.77,0,1.14-.1-.41-.18-.85-.28-1.24A1.76,1.76,0,0,1,416.46,284.6Z"/><path class="cls-9" d="M344.52,458.2A162.1,162.1,0,0,1,341.57,484c-2.3,11-5.69,18-9.46,18s-7.2-7-9.51-18.18a171.12,171.12,0,0,1-3.07-30.18"/><path class="cls-9" d="M403.29,454.46a159.06,159.06,0,0,1-3.52,31c-2.4,10.22-5.78,16.6-9.54,16.6-2,0-3.93-1.83-5.64-5.11l-.51-1c-.17-.36-.33-.73-.49-1.11s-.33-.78-.48-1.2a68.77,68.77,0,0,1-2.88-10.12,157.12,157.12,0,0,1-2.94-25"/><path class="cls-10" d="M394.62,272.2c0,2.16-.08,4.28-.24,6.38a162.19,162.19,0,0,0-71.26,2,88.69,88.69,0,0,1,4.55-27.82h0a73.65,73.65,0,0,1,9.11-18.35l-.69-.69-.06-.06c.35.08.73.13,1.11.21.79.16,1.56.3,2.35.44a108.22,108.22,0,0,0,13.59,1.52c1,.07,1.95.11,2.93.13h.45c.2,0,.4,0,.6,0,.55,0,1.11,0,1.68,0h.34c.29,0,.59,0,.89,0h0l.65,0,1.38,0,1.81-.05c1.07,0,2.12-.1,3.17-.15.61,0,1.21-.1,1.82-.16s1.17-.08,1.74-.14,1.33-.14,2-.24a.34.34,0,0,0,.14,0c.77-.06,1.53-.16,2.28-.28l.51-.08h0c.79-.09,1.57-.21,2.36-.37l.36-.06c.69-.1,1.38-.22,2-.36s1.47-.27,2.18-.43l.56-.11.41-.09,0,0c.54-.1,1.07-.22,1.61-.36l.33-.08.08,0a82.88,82.88,0,0,1,8.26,26.5A90.27,90.27,0,0,1,394.62,272.2Z"/><path class="cls-10" d="M393.79,231.11a9,9,0,0,0-2.32,1.61c-.34-.36-.67-.72-1-1.05,1-.28,2-.58,2.93-.89A4,4,0,0,1,393.79,231.11Z"/><path class="cls-10" d="M416.46,284.6c0,.37,0,.77,0,1.14-.1-.41-.18-.85-.28-1.24A1.76,1.76,0,0,1,416.46,284.6Z"/><path class="cls-11" d="M394.62,272.2c0,2.16-.08,4.28-.24,6.38a162.19,162.19,0,0,0-71.26,2,88.69,88.69,0,0,1,4.55-27.82h0a73.65,73.65,0,0,1,9.11-18.35l.33-.5,0,0c.79.16,1.56.3,2.35.44a108.22,108.22,0,0,0,13.59,1.52c1,.07,1.95.11,2.93.13h.45c.2,0,.4,0,.6,0,.55,0,1.11,0,1.68,0h.34c.29,0,.59,0,.89,0h0l.65,0,1.38,0,1.81-.05c1.07,0,2.12-.1,3.17-.15.61,0,1.21-.1,1.82-.16s1.17-.08,1.74-.14,1.33-.14,2-.24a.34.34,0,0,0,.14,0c.77-.06,1.53-.16,2.28-.28l.51-.08h0c.79-.09,1.57-.21,2.36-.37l.36-.06c.69-.1,1.38-.22,2-.36s1.47-.27,2.18-.43l.56-.11.41-.09,0,0c.54-.1,1.07-.22,1.61-.36l.33-.08.08,0a82.88,82.88,0,0,1,8.26,26.5A90.27,90.27,0,0,1,394.62,272.2Z"/><path class="cls-11" d="M393.79,231.11a9,9,0,0,0-2.32,1.61c-.34-.36-.67-.72-1-1.05,1-.28,2-.58,2.93-.89A4,4,0,0,1,393.79,231.11Z"/><path class="cls-11" d="M416.46,284.6c0,.37,0,.77,0,1.14-.1-.41-.18-.85-.28-1.24A1.76,1.76,0,0,1,416.46,284.6Z"/><path class="cls-11" d="M418.28,297.41c-.33-2.66-.71-5.25-1.15-7.82C417.59,292.16,418,294.75,418.28,297.41Z"/><path class="cls-11" d="M302.64,287.45c-.26,1.34-.49,2.69-.71,4.06-.14-1.21-.26-2.42-.32-3.63C302,287.73,302.28,287.59,302.64,287.45Z"/><path class="cls-11" d="M394.62,272.2c0,2.16-.08,4.28-.24,6.38a162.19,162.19,0,0,0-71.26,2,88.69,88.69,0,0,1,4.55-27.82h0a73.65,73.65,0,0,1,9.11-18.35l-.69-.69-.06-.06c.35.08.73.13,1.11.21.79.16,1.56.3,2.35.44a108.22,108.22,0,0,0,13.59,1.52c1,.07,1.95.11,2.93.13h.45c.2,0,.4,0,.6,0,.55,0,1.11,0,1.68,0h.34c.29,0,.59,0,.89,0h0l.65,0,1.38,0,1.81-.05c1.07,0,2.12-.1,3.17-.15.61,0,1.21-.1,1.82-.16s1.17-.08,1.74-.14,1.33-.14,2-.24a.34.34,0,0,0,.14,0c.77-.06,1.53-.16,2.28-.28l.51-.08h0c.79-.09,1.57-.21,2.36-.37l.36-.06c.69-.1,1.38-.22,2-.36s1.47-.27,2.18-.43l.56-.11.43-.11c.54-.1,1.07-.22,1.61-.36l.33-.08.08,0a82.88,82.88,0,0,1,8.26,26.5A90.27,90.27,0,0,1,394.62,272.2Z"/><path class="cls-12" d="M418.72,301.41c-.87-.71-1.76-1.39-2.68-2.06a10.16,10.16,0,0,0-.91-.67c-.83-.62-1.7-1.23-2.57-1.83s-2-1.28-3-1.92-2-1.22-3.11-1.82l-.18-.1c-.55-.31-1.13-.63-1.7-.91l-.34-.18c-.83-.45-1.7-.87-2.59-1.28s-1.57-.74-2.36-1.09c-1-.42-1.92-.82-2.91-1.19s-1.8-.69-2.73-1l-.28-.1c-.55-.18-1.11-.38-1.68-.55a102.44,102.44,0,0,0-66,2.29h0c-.73.28-1.45.58-2.16.87l-.39.18c-.95.4-1.91.81-2.84,1.25-.25.1-.51.22-.75.34l-.18.08c-1.11.51-2.21,1.06-3.3,1.62-.8.41-1.61.83-2.4,1.29s-1.54.83-2.32,1.3-1.66.95-2.49,1.47c-.67.39-1.35.81-2,1.27-1.13.69-2.24,1.42-3.33,2.17s-2,1.37-2.95,2.08c.2-2.31.44-4.61.73-6.87l.24-1.72c.14-.95.28-1.88.42-2.81.22-1.37.45-2.72.71-4.06,3.37-1.41,6.83-2.7,10.34-3.84q5-1.67,10.12-3h0a162.19,162.19,0,0,1,71.26-2c3.55.69,7,1.48,10.48,2.43q5.76,1.51,11.3,3.49c.1.39.18.83.28,1.24v0c.26,1.25.48,2.54.69,3.81.44,2.57.82,5.16,1.15,7.82C418.44,298.73,418.6,300.06,418.72,301.41Z"/><path class="cls-11" d="M302.64,287.45c-.26,1.34-.49,2.69-.71,4.06-.14-1.21-.26-2.42-.32-3.63C302,287.73,302.28,287.59,302.64,287.45Z"/><path class="cls-13" d="M394.62,272.2c0,2.16-.08,4.28-.24,6.38a162.19,162.19,0,0,0-71.26,2,88.69,88.69,0,0,1,4.55-27.82h0a73.65,73.65,0,0,1,9.11-18.35l-.69-.69-.06-.06c.35.08.73.13,1.11.21.79.16,1.56.3,2.35.44a108.22,108.22,0,0,0,13.59,1.52c1,.07,1.95.11,2.93.13h.45c.2,0,.4,0,.6,0,.55,0,1.11,0,1.68,0h.34c.29,0,.59,0,.89,0h0l.65,0,1.38,0,1.81-.05c1.07,0,2.12-.1,3.17-.15.61,0,1.21-.1,1.82-.16s1.17-.08,1.74-.14,1.33-.14,2-.24a.34.34,0,0,0,.14,0c.77-.06,1.53-.16,2.28-.28l.51-.08h0c.79-.09,1.57-.21,2.36-.37l.36-.06c.69-.1,1.38-.22,2-.36s1.47-.27,2.18-.43l.56-.11.43-.11c.54-.1,1.07-.22,1.61-.36l.33-.08.08,0a82.88,82.88,0,0,1,8.26,26.5A90.27,90.27,0,0,1,394.62,272.2Z"/><path class="cls-14" d="M471.06,125.23A109.57,109.57,0,0,1,450.68,189a112.22,112.22,0,0,1-57.52,41.81c-1,.31-1.94.61-2.93.89-.36.1-.7.19-1.05.27-.76.22-1.51.42-2.26.62-.54.14-1.09.26-1.63.39h0l-.08,0-.34.08c-.54.14-1.07.26-1.6.36-.34.08-.66.16-1,.22-.72.16-1.45.29-2.18.43s-1.37.26-2.06.36l-.36.06c-.79.16-1.56.28-2.36.37h0l-.51.08c-.75.12-1.5.22-2.28.28a.34.34,0,0,1-.14,0c-.65.1-1.3.16-2,.24s-1.16.1-1.74.14-1.21.12-1.82.16c-1.05,0-2.1.11-3.17.15L362,236l-1.26,0a.25.25,0,0,0-.12,0h-.22a.9.9,0,0,1,.22,0c.6,0,1.19-.06,1.78-.12a10.8,10.8,0,0,0,1.17-.11,16.5,16.5,0,0,0,1.72-.22,3.94,3.94,0,0,0,.68-.08c.75-.12,1.52-.26,2.28-.4,1.42-.27,2.83-.61,4.21-1,.6-.16,1.17-.31,1.73-.51s1.14-.36,1.7-.56,1.36-.47,2-.73c1.86-.71,3.72-1.52,5.54-2.43.91-.46,1.82-.94,2.74-1.43l.27-.16c.58-.32,1.17-.65,1.74-1,1-.55,2-1.17,3-1.82.46-.3.92-.6,1.36-.92h0c.14-.08.26-.18.38-.26,1.21-.81,2.39-1.68,3.58-2.61.69-.52,1.37-1.07,2-1.63s1.27-1,1.9-1.58,1.11-1,1.67-1.47a.4.4,0,0,0,.13-.13,8.06,8.06,0,0,0,.76-.7c.75-.67,1.5-1.38,2.23-2.12.28-.26.56-.54.83-.82s.55-.55.82-.84a2.7,2.7,0,0,0,.37-.4c.74-.73,1.43-1.46,2.1-2.23.56-.6,1.09-1.21,1.61-1.82q1.69-1.87,3.22-3.87c.5-.61,1-1.24,1.47-1.9.3-.35.57-.73.83-1.09s.56-.73.81-1.1c.56-.74,1.09-1.49,1.61-2.24.67-.95,1.32-1.94,2-2.93,1.32-2,2.57-4.06,3.76-6.14.59-1.05,1.19-2.08,1.74-3.15,1.17-2.16,2.28-4.38,3.31-6.59,1-2.06,1.86-4.14,2.69-6.24a.28.28,0,0,0,0-.12c.46-1.09.87-2.18,1.25-3.29.49-1.32,1-2.65,1.37-4,.17-.51.35-1,.49-1.58a1,1,0,0,0,.08-.26c.18-.53.34-1.09.5-1.64.27-.93.53-1.86.77-2.79s.47-1.87.68-2.8.4-1.85.58-2.77c0-.12.06-.25.08-.37.08-.37.14-.74.2-1.09.16-.78.3-1.53.4-2.26s.2-1.13.26-1.68c.25-1.71.43-3.39.57-5.05,0-.48.08-.95.1-1.45.06-.77.1-1.52.12-2.3s.06-1.82.06-2.73V136c0-1.06,0-2.13-.08-3.2-.08-2-.26-4-.52-6-.16-1.49-.37-3-.63-4.42-1.45.46-2.87.89-4.3,1.31-.49.16-1,.29-1.44.43-.68.22-1.35.42-2,.6q-3.27.94-6.48,1.82l-1.09.3c-.91.25-1.82.51-2.73.73-1.25.34-2.51.67-3.76,1s-2.58.65-3.86,1l-1.59.38-.51.11-2.08.48c-.83.18-1.65.38-2.46.55-1.54.34-3.07.68-4.59,1-2.14.44-4.26.86-6.32,1.23-1.38.26-2.75.5-4.1.73-2.41.42-4.79.78-7.11,1.11-1.22.18-2.41.34-3.6.48-2.67.34-5.27.61-7.76.81-.85.08-1.68.14-2.5.2l-1.9.12c-1.26.07-2.48.12-3.68.16s-2.37.05-3.51.05h-2l-2.06-.06c-1.13,0-2.28-.08-3.45-.16h-.1a1.14,1.14,0,0,1-.26,0h0l-.57,0c-.46,0-.93-.06-1.39-.1a.25.25,0,0,0-.12,0h0c-.52,0-1.05-.08-1.57-.14a1.42,1.42,0,0,1-.28,0c-.41,0-.81-.06-1.22-.1l-.2,0-1.33-.14c-.32,0-.61-.06-.93-.1s-.42-.06-.61-.07c-.8-.08-1.61-.18-2.42-.3-.28,0-.57-.06-.87-.12l-1.41-.18-.93-.14h-.1l-.08,0-3.3-.51a3.1,3.1,0,0,1-.42-.08c-.57-.08-1.17-.18-1.76-.3l-2.2-.39c-.93-.16-1.86-.36-2.81-.54h0c-1.15-.24-2.32-.47-3.48-.73-.32-.06-.66-.14-1-.22-1.38-.3-2.79-.61-4.19-.95s-2.58-.61-3.86-1q-3.09-.78-6.24-1.66c-1.23-.34-2.46-.7-3.7-1.07l-.16,0-2.38-.72a2.86,2.86,0,0,0-.28-.07q-4-1.23-8-2.6c-.85-.28-1.68-.55-2.51-.87-.26-.08-.52-.16-.77-.26l-3-1.07q-2.44-.89-4.87-1.82a77.83,77.83,0,0,0-1.63,13.74c0,.78,0,1.53,0,2.3,0,1.23,0,2.48.08,3.72,0,.72.06,1.45.12,2.18a3.27,3.27,0,0,0,0,.44.13.13,0,0,0,0,.12v0c.06,1,.16,2.06.26,3.08a.5.5,0,0,0,0,.16c.1,1.09.23,2.2.39,3.31a1.54,1.54,0,0,0,0,.3c.12,1,.28,1.94.44,2.93q.8,4.84,2,9.72c.16.63.31,1.25.49,1.88.1.44.24.87.36,1.33s.34,1.21.53,1.82l.18.59c.2.68.42,1.37.64,2q.83,2.63,1.82,5.21c.23.67.47,1.35.75,2s.57,1.47.87,2.2c.44,1.09.89,2.16,1.37,3.23a.71.71,0,0,1,.08.18c.37.85.77,1.68,1.18,2.53.58,1.25,1.17,2.48,1.81,3.7,1.07,2.08,2.17,4.1,3.32,6.1.7,1.15,1.37,2.3,2.1,3.41.46.73.91,1.44,1.41,2.18.73,1.1,1.48,2.21,2.26,3.28.65.91,1.32,1.82,2,2.72a96.59,96.59,0,0,0,6.63,7.82c1.8,1.9,3.64,3.68,5.54,5.34a19.94,19.94,0,0,0,1.59,1.37c.67.59,1.34,1.15,2,1.66.31.26.65.52,1,.76a63.17,63.17,0,0,0,6.35,4.29l0,0h0c.42.26.83.5,1.25.74,1.31.73,2.61,1.42,4,2,.85.42,1.7.8,2.58,1.15a53.28,53.28,0,0,0,6.83,2.32c.63.18,1.26.34,1.92.48s1.5.31,2.26.45c.39.08.79.14,1.18.2s.95.16,1.43.2c1.34.18,2.71.3,4.08.36-1.05,0-2.1-.06-3.15-.13a108.06,108.06,0,0,1-13.58-1.52l-2.17-.4-.19,0-.83-.15-.28-.06c-.83-.17-1.67-.34-2.48-.54l-.17,0q-2.3-.51-4.53-1.14l-.17-.05c-3.18-.89-6.31-1.9-9.36-3a113,113,0,0,1-12.89-5.78,111.8,111.8,0,0,1-27.71-20.53,109.73,109.73,0,0,1-31.82-77.33c0-2.49.08-5,.26-7.42a106.28,106.28,0,0,1,1.84-14c10.12-50.93,55.57-89.35,110.08-89.35,57.17,0,104.31,42.2,111.3,96.79a102.39,102.39,0,0,1,.88,12.48C471.06,124.2,471.06,124.72,471.06,125.23Z"/><path class="cls-11" d="M340.7,135.37l-1-.14h.1Z"/><path class="cls-15" d="M432,314c-.69-.75-1.38-1.5-2.09-2.24s-1.41-1.46-2.14-2.17-1.43-1.43-2.16-2.14h0c-.71-.7-1.45-1.37-2.18-2l-.06-.06c-1.5-1.37-3.05-2.67-4.63-4-.12-1.35-.28-2.68-.44-4-.31-2.66-.69-5.25-1.15-7.82-.21-1.27-.43-2.56-.69-3.81v0c0-.37,0-.77,0-1.14a1.76,1.76,0,0,0-.3-.1c-.51-2.48-1.09-4.91-1.72-7.29-.08-.4-.2-.79-.32-1.19-.23-.93-.49-1.84-.77-2.73-.14-.53-.3-1.05-.47-1.56-.18-.66-.38-1.29-.6-1.91-.12-.41-.25-.83-.39-1.22-.62-1.81-1.25-3.57-1.92-5.29-.28-.75-.56-1.49-.88-2.22-.37-.93-.75-1.86-1.16-2.75-.24-.57-.5-1.13-.74-1.68s-.37-.8-.57-1.19c-.5-1.07-1-2.1-1.55-3.13-.15-.32-.31-.61-.47-.91-1.45-2.77-3-5.43-4.65-7.92-.3-.46-.6-.89-.89-1.33a.07.07,0,0,0,0,0c-.48-.69-1-1.38-1.45-2s-1.15-1.54-1.72-2.29l-.5-.62c-1.27-1.58-2.55-3.07-3.9-4.47a9,9,0,0,1,2.32-1.61,6.07,6.07,0,0,1,1-.39c7.07-2.18,16.35,6.11,24.06,20.11A110.19,110.19,0,0,1,425,264v0c1.06,2.75,2.05,5.65,3,8.62a121.72,121.72,0,0,1,4.15,18.47C433.35,300,433.29,307.94,432,314Z"/><path class="cls-16" d="M394.38,278.58c.16-2.1.24-4.22.24-6.38a90.27,90.27,0,0,0-.89-12.75,82.88,82.88,0,0,0-8.26-26.5h0c.54-.13,1.09-.25,1.62-.39.76-.2,1.51-.4,2.26-.62a74.6,74.6,0,0,1,12.52,26.28A89.41,89.41,0,0,1,404.86,281C401.41,280.06,397.93,279.27,394.38,278.58Z"/><path class="cls-13" d="M416.16,284.5q-5.55-2-11.3-3.49a89.41,89.41,0,0,0-2.95-22.79,74.6,74.6,0,0,0-12.52-26.28c.36-.08.69-.17,1.05-.27.36.33.69.69,1,1.05,1.35,1.4,2.63,2.89,3.9,4.47l.5.62c.57.75,1.17,1.5,1.72,2.29s1,1.35,1.45,2a.07.07,0,0,1,0,0c.29.44.59.87.89,1.33,1.64,2.49,3.2,5.15,4.65,7.92.16.3.32.59.47.91.54,1,1.05,2.06,1.55,3.13.2.39.38.79.57,1.19s.5,1.11.74,1.68c.41.89.79,1.82,1.16,2.75.3.73.6,1.47.88,2.22.67,1.72,1.3,3.48,1.92,5.29.14.39.27.81.39,1.22.22.62.42,1.25.6,1.91.17.51.33,1,.47,1.56.28.89.54,1.8.77,2.73.12.4.22.79.32,1.19C415.07,279.59,415.65,282,416.16,284.5Z"/><path class="cls-11" d="M393.79,231.11a9,9,0,0,0-2.32,1.61c-.34-.36-.67-.72-1-1.05,1-.28,2-.58,2.93-.89A4,4,0,0,1,393.79,231.11Z"/><path class="cls-11" d="M340.7,135.37l-1-.14h.1Z"/><path class="cls-11" d="M421.13,194.7c1.31-2,2.58-4.06,3.77-6.14C423.71,190.64,422.46,192.7,421.13,194.7Z"/><path class="cls-17" d="M393.73,259.45c-12.42.83-25.19-2.69-37.31-9.78a102.19,102.19,0,0,1-19.64-15.23l-.69-.69-.06-.06c.35.08.73.13,1.11.21.79.16,1.56.3,2.35.44a108.22,108.22,0,0,0,13.59,1.52c1,.07,1.95.11,2.93.13h.45c.2,0,.4,0,.6,0,.55,0,1.11,0,1.68,0h.34c.29,0,.59,0,.89,0h0l.65,0,1.38,0,1.81-.05c1.07,0,2.12-.1,3.17-.15.61,0,1.21-.1,1.82-.16s1.17-.08,1.74-.14,1.33-.14,2-.24a.34.34,0,0,0,.14,0c.77-.06,1.53-.16,2.28-.28l.51-.08h0c.79-.09,1.57-.21,2.36-.37l.36-.06c.69-.1,1.38-.22,2-.36s1.47-.27,2.18-.43l.56-.11.43-.11c.54-.1,1.07-.22,1.61-.36l.33-.08.08,0A82.88,82.88,0,0,1,393.73,259.45Z"/><path class="cls-17" d="M360.78,236a.25.25,0,0,0-.12,0h-.22a.9.9,0,0,1,.22,0c.6,0,1.19-.06,1.78-.12a10.8,10.8,0,0,0,1.17-.11,16.5,16.5,0,0,0,1.72-.22,3.94,3.94,0,0,0,.68-.08c.75-.12,1.52-.26,2.28-.4,1.42-.27,2.83-.61,4.21-1,.6-.16,1.17-.31,1.73-.51s1.14-.36,1.7-.56,1.36-.47,2-.73c1.86-.71,3.72-1.52,5.54-2.43.91-.46,1.82-.94,2.74-1.43l.27-.16c.58-.32,1.17-.65,1.74-1,1-.55,2-1.17,3-1.82.46-.3.92-.6,1.36-.92h.24c-.46.32-.91.63-1.39.93-1,.65-2,1.27-2.95,1.82-.57.38-1.17.71-1.74,1l-.28.16c-.91.49-1.82,1-2.73,1.43-1.82.91-3.68,1.72-5.54,2.43-.68.26-1.35.5-2,.73s-1.13.4-1.71.56-1.13.35-1.72.51c-1.39.4-2.79.74-4.22,1-.75.14-1.52.28-2.27.4a3.94,3.94,0,0,1-.68.08c-.57.1-1.15.16-1.72.22a11,11,0,0,1-1.17.11c-.59.06-1.19.1-1.78.12Z"/><path class="cls-11" d="M430,178.82c.95-2.06,1.84-4.14,2.69-6.24C431.81,174.68,430.92,176.76,430,178.82Z"/><path class="cls-16" d="M336.78,234.44a73.55,73.55,0,0,0-9.11,18.36,88.4,88.4,0,0,0-4.55,27.82h0Q318,282,313,283.61a75.77,75.77,0,0,1,7.38-32.5,62,62,0,0,1,13-18c.87.22,1.77.4,2.66.58C336.26,233.94,336.52,234.18,336.78,234.44Z"/><path class="cls-13" d="M333.37,233.11a62,62,0,0,0-13,18,75.77,75.77,0,0,0-7.38,32.5c-3.51,1.14-7,2.43-10.34,3.84.26-1.41.54-2.79.83-4.18a.91.91,0,0,0,.06-.32c.32-1.34.62-2.65,1-4s.64-2.53,1-3.78c0,0,0-.06,0-.1.34-1.19.69-2.37,1.05-3.52.14-.44.26-.85.4-1.27.35-1.11.73-2.22,1.11-3.29,0-.08,0-.14.06-.2.43-1.2.87-2.41,1.32-3.58s.85-2.16,1.29-3.21c.14-.33.28-.67.44-1,.39-.95.81-1.88,1.24-2.79s1-2.08,1.49-3.09c.26-.53.53-1.07.81-1.58.38-.72.75-1.41,1.15-2.1.91-1.68,1.88-3.31,2.87-4.87.26-.42.53-.83.81-1.25,1.53-2.32,3.15-4.52,4.81-6.57.36-.46.74-.9,1.11-1.33s.87-1,1.33-1.51.91-1,1.37-1.46c.17-.2.35-.38.53-.56C330.22,232.36,331.79,232.76,333.37,233.11Z"/><path class="cls-15" d="M328.15,232.48c-.46.47-.92,1-1.37,1.46s-.89,1-1.33,1.51-.75.87-1.11,1.33c-1.66,2.05-3.28,4.25-4.81,6.57-.28.42-.55.83-.81,1.25-1,1.56-2,3.19-2.87,4.87-.4.69-.77,1.38-1.15,2.1-.28.51-.55,1.05-.81,1.58-.52,1-1,2-1.49,3.09s-.85,1.84-1.24,2.79c-.16.32-.3.66-.44,1q-.66,1.58-1.29,3.21c-.45,1.17-.89,2.38-1.32,3.58,0,.06,0,.12-.06.2-.38,1.07-.76,2.18-1.11,3.29-.14.42-.26.83-.4,1.27-.36,1.15-.71,2.33-1.05,3.52,0,0,0,.06,0,.1-.35,1.25-.67,2.52-1,3.78s-.63,2.64-1,4a.91.91,0,0,1-.06.32c-.29,1.39-.57,2.77-.83,4.18-.36.14-.69.28-1,.43.06,1.21.18,2.42.32,3.63-.14.93-.28,1.86-.42,2.81l-.24,1.72c-.29,2.26-.53,4.56-.73,6.87-1.05.76-2.1,1.55-3.13,2.36a163.7,163.7,0,0,0-12.71,10.81c-1.37-5-1.52-11.78-.47-19.52a112.78,112.78,0,0,1,6.69-25.21c.08-.18.14-.38.22-.56A106,106,0,0,1,306,244a48.43,48.43,0,0,1,8.33-8.53l0,0c4.64-3.61,9.05-5,12.66-3.61A6.15,6.15,0,0,1,328.15,232.48Z"/><path class="cls-18" d="M392.6,224.44c.14-.08.26-.18.38-.26q1.8-1.22,3.58-2.61c.69-.52,1.37-1.07,2-1.63s1.27-1,1.9-1.58,1.11-1,1.66-1.47a.42.42,0,0,0,.14-.13l.75-.7c.76-.67,1.51-1.38,2.24-2.12.56-.53,1.11-1.08,1.65-1.66a4.49,4.49,0,0,0,.37-.4c.72-.73,1.41-1.48,2.1-2.23.56-.6,1.09-1.21,1.61-1.82q1.68-1.87,3.22-3.87c.5-.61,1-1.24,1.47-1.9.3-.35.57-.73.83-1.09s.55-.73.81-1.1c.56-.74,1.09-1.49,1.61-2.24.67-.95,1.32-1.94,2-2.93,1.3-2,2.57-4.06,3.76-6.14.59-1.05,1.19-2.08,1.74-3.15,1.17-2.16,2.28-4.38,3.31-6.59.95-2.06,1.84-4.14,2.69-6.24a.28.28,0,0,0,0-.12c.44-1.09.85-2.18,1.25-3.29.49-1.32,1-2.65,1.36-4,.18-.51.36-1,.5-1.58a1,1,0,0,0,.08-.26c.18-.53.34-1.09.49-1.64q.42-1.4.78-2.79.74-2.81,1.26-5.57c.1-.49.2-1,.28-1.46.16-.78.3-1.53.4-2.26s.19-1.13.25-1.68c.26-1.71.44-3.39.58-5.05,0-.48.08-.95.1-1.45.06-.77.1-1.52.12-2.3s.06-1.82.06-2.73V136c0-1.06,0-2.13-.08-3.2-.08-2-.26-4-.52-6-.16-1.49-.37-3-.63-4.42-1.45.46-2.87.89-4.3,1.31-.49.16-1,.29-1.44.43-.68.22-1.35.42-2,.6q-3.27.94-6.48,1.82l-1.09.3c-.91.25-1.82.51-2.73.73-1.25.34-2.52.67-3.76,1s-2.58.65-3.87,1l-1.58.38-.51.11-2.08.48c-.84.18-1.65.38-2.46.55-1.54.34-3.07.68-4.59,1-2.14.44-4.26.86-6.32,1.23-1.39.26-2.75.5-4.1.73-2.41.42-4.79.78-7.11,1.11-1.23.18-2.41.34-3.6.48-2.67.34-5.27.61-7.76.81-.86.08-1.69.14-2.5.2l-1.9.12c-2.51.14-4.91.22-7.19.22-1.34,0-2.71,0-4.1-.08-1.13,0-2.27-.08-3.44-.16h-.1a1.14,1.14,0,0,1-.26,0h0l-.57,0c-.46,0-.93-.06-1.39-.1a.25.25,0,0,0-.12,0h0c-.51,0-1.05-.08-1.56-.14a1.42,1.42,0,0,1-.28,0c-.41,0-.81-.06-1.23-.1l-.19,0-1.33-.14c-.32,0-.61-.06-.93-.1s-.42-.06-.62-.07c-.79-.08-1.6-.18-2.41-.3-.28,0-.58-.06-.87-.12l-1.41-.18-1-.14-.08,0-3.3-.51a3.1,3.1,0,0,1-.42-.08c-.57-.08-1.17-.18-1.76-.3l-2.2-.39c-.93-.16-1.86-.36-2.81-.54h0c-1.15-.24-2.32-.47-3.49-.73-.31-.06-.65-.14-1-.22-1.38-.3-2.79-.61-4.2-.95s-2.57-.61-3.86-1c-2.06-.52-4.13-1.07-6.23-1.66-1.23-.34-2.46-.7-3.71-1.07a.62.62,0,0,1-.16,0l-2.37-.72a2.86,2.86,0,0,0-.28-.07c-2.67-.82-5.35-1.69-8-2.6-.85-.28-1.68-.55-2.51-.87-.26-.08-.52-.16-.78-.26l-3-1.07c-1.62-.59-3.24-1.18-4.87-1.82a78.77,78.77,0,0,0-1.62,13.74c0,.78,0,1.53,0,2.3,0,1.23,0,2.48.08,3.72,0,.72.06,1.45.12,2.18a3.27,3.27,0,0,0,0,.44.13.13,0,0,0,0,.12v0c.06,1,.16,2.06.26,3.08a1,1,0,0,0,0,.16c.1,1.09.24,2.2.4,3.31a1.54,1.54,0,0,0,0,.3c.12,1,.28,1.94.44,2.93.53,3.23,1.2,6.47,2,9.72.15.63.31,1.25.49,1.88.1.44.24.87.36,1.33s.33,1.21.53,1.82l.18.59c.2.68.42,1.37.63,2q.84,2.63,1.83,5.21c.23.67.47,1.35.75,2s.57,1.47.87,2.2c.43,1.09.89,2.16,1.37,3.23a.67.67,0,0,1,.07.18c.38.85.78,1.68,1.19,2.53.58,1.25,1.17,2.48,1.8,3.7,1.07,2.08,2.18,4.1,3.33,6.1.69,1.15,1.37,2.3,2.1,3.41.46.73.91,1.44,1.41,2.18.73,1.1,1.48,2.21,2.25,3.28.66.91,1.33,1.82,2,2.72a98.77,98.77,0,0,0,6.64,7.82c1.8,1.9,3.64,3.68,5.54,5.34a19.94,19.94,0,0,0,1.59,1.37c.67.59,1.34,1.15,2,1.66.31.26.65.52,1,.76a61,61,0,0,0,6.35,4.29"/><path class="cls-11" d="M340.7,135.37l-1-.14h.1Z"/><path class="cls-19" d="M360,236l.65,0,1.38,0,1.81-.05c1.07,0,2.12-.1,3.17-.15.61,0,1.21-.1,1.82-.16s1.17-.08,1.74-.14,1.33-.14,2-.24a.34.34,0,0,0,.14,0c.77-.06,1.53-.16,2.28-.28l.51-.08h0c.79-.09,1.57-.21,2.36-.37l.36-.06c.69-.1,1.38-.22,2-.36s1.47-.27,2.18-.43l.56-.11.43-.11,0,0a87.69,87.69,0,0,1-27,16.24,58.38,58.38,0,0,1-28.75,3.12,73.65,73.65,0,0,1,9.11-18.35l-.69-.69-.06-.06c.35.08.73.13,1.11.21.79.16,1.56.3,2.35.44a108.22,108.22,0,0,0,13.59,1.52c1,.07,1.95.11,2.93.13h.45c.2,0,.4,0,.6,0,.55,0,1.11,0,1.68,0h.34c.29,0,.59,0,.89,0Z"/><path class="cls-19" d="M392.82,224.44c-.46.32-.91.63-1.39.93-1,.65-2,1.27-2.95,1.82-.57.38-1.17.71-1.74,1l-.28.16c-.91.49-1.82,1-2.73,1.43-1.82.91-3.68,1.72-5.54,2.43-.68.26-1.35.5-2,.73s-1.13.4-1.71.56-1.13.35-1.72.51c-1.39.4-2.79.74-4.22,1-.75.14-1.52.28-2.27.4a3.94,3.94,0,0,1-.68.08c-.57.1-1.15.16-1.72.22a11,11,0,0,1-1.17.11c-.59.06-1.19.1-1.78.12h-.1a.25.25,0,0,0-.12,0h-.22a.9.9,0,0,1,.22,0c.6,0,1.19-.06,1.78-.12a10.8,10.8,0,0,0,1.17-.11,16.5,16.5,0,0,0,1.72-.22,3.94,3.94,0,0,0,.68-.08c.75-.12,1.52-.26,2.28-.4,1.42-.27,2.83-.61,4.21-1,.6-.16,1.17-.31,1.73-.51s1.14-.36,1.7-.56,1.36-.47,2-.73c1.86-.71,3.72-1.52,5.54-2.43.91-.46,1.82-.94,2.74-1.43l.27-.16c.58-.32,1.17-.65,1.74-1,1-.55,2-1.17,3-1.82.46-.3.92-.6,1.36-.92Z"/><path class="cls-20" d="M302.54,169a31.74,31.74,0,0,1,44.89-.21"/><path class="cls-20" d="M372.82,168.57a31.76,31.76,0,0,1,44.9-.22"/><path class="cls-19" d="M341.57,484c-2.3,11-5.69,18-9.46,18s-7.2-7-9.51-18.18c2.33-3.44,5.69-5.6,9.43-5.6S339.25,480.48,341.57,484Z"/><path class="cls-19" d="M399.77,485.42c-2.4,10.22-5.78,16.6-9.54,16.6-2,0-3.93-1.83-5.64-5.11l-.51-1c-.16-.36-.33-.73-.49-1.11s-.32-.78-.48-1.2a68.77,68.77,0,0,1-2.88-10.12h0c2.31-3.21,5.55-5.21,9.15-5.21C393.68,478.24,397.47,481.08,399.77,485.42Z"/></svg>